<?xml version="1.0" encoding="UTF-8" standalone="no"?>
<svg
   xmlns:dc="http://purl.org/dc/elements/1.1/"
   xmlns:cc="http://creativecommons.org/ns#"
   xmlns:rdf="http://www.w3.org/1999/02/22-rdf-syntax-ns#"
   xmlns:svg="http://www.w3.org/2000/svg"
   xmlns="http://www.w3.org/2000/svg"
   xmlns:sodipodi="http://sodipodi.sourceforge.net/DTD/sodipodi-0.dtd"
   xmlns:inkscape="http://www.inkscape.org/namespaces/inkscape"
   version="1.1"
   viewBox="0 0 610.4523 431.63293"
   enable-background="new 0 0 297 297"
   width="297mm"
   height="210mm"
   id="svg4196"
   inkscape:version="0.91 r13725"
   sodipodi:docname="logo_acheumprofissional.svg">
  <metadata
     id="metadata4216">
    <rdf:RDF>
      <cc:Work
         rdf:about="">
        <dc:format>image/svg+xml</dc:format>
        <dc:type
           rdf:resource="http://purl.org/dc/dcmitype/StillImage" />
        <dc:title></dc:title>
      </cc:Work>
    </rdf:RDF>
  </metadata>
  <defs
     id="defs4214" />
  <sodipodi:namedview
     pagecolor="#ffffff"
     bordercolor="#666666"
     borderopacity="1"
     objecttolerance="10"
     gridtolerance="10"
     guidetolerance="10"
     inkscape:pageopacity="0"
     inkscape:pageshadow="2"
     inkscape:window-width="1301"
     inkscape:window-height="744"
     id="namedview4212"
     showgrid="false"
     units="mm"
     inkscape:zoom="0.4609375"
     inkscape:cx="218.0339"
     inkscape:cy="256"
     inkscape:window-x="65"
     inkscape:window-y="24"
     inkscape:window-maximized="1"
     inkscape:current-layer="svg4196" />
  <g
     id="g4198"
     transform="matrix(0.33044308,0,0,0.33044308,120.82327,145.96859)">
    <path
       d="m 148.5,116.187 c 32.029,0 58.086,-26.057 58.086,-58.086 0,-32.029 -26.057,-58.087 -58.086,-58.087 -32.029,0 -58.086,26.058 -58.086,58.087 0,32.029 26.057,58.086 58.086,58.086 z M 120.402,51.894 c 3.429,-3.427 8.985,-3.427 12.414,0 l 8.387,8.388 22.981,-22.982 c 3.429,-3.427 8.985,-3.427 12.414,0 3.428,3.428 3.428,8.986 0,12.414 L 147.41,78.902 c -1.714,1.713 -3.96,2.571 -6.207,2.571 -2.247,0 -4.493,-0.857 -6.207,-2.571 L 120.402,64.308 c -3.428,-3.428 -3.428,-8.987 0,-12.414 z"
       id="path4200"
       inkscape:connector-curvature="0"
       style="fill:#006df0" />
    <path
       d="m 34.165,84.869 c 18.839,0 34.166,-15.327 34.166,-34.166 C 68.331,31.864 53.004,16.537 34.165,16.537 15.326,16.537 0,31.864 0,50.703 0,69.542 15.326,84.869 34.165,84.869 Z"
       id="path4202"
       inkscape:connector-curvature="0"
       style="fill:#006df0" />
    <path
       d="m 3.367,133.777 0,70.955 c 0,16.297 13.211,29.508 29.508,29.508 l 38.457,0 0,52.407 c 0,3.992 3.236,7.229 7.229,7.229 l 34.077,0 c 3.992,0 7.229,-3.236 7.229,-7.229 l 0,-75.595 c 0,-13.757 -11.152,-24.908 -24.908,-24.908 l -29.995,0 0,-52.367 c 0,-17.009 -13.789,-30.798 -30.798,-30.798 -17.01,-0.001 -30.799,13.788 -30.799,30.798 z"
       id="path4204"
       inkscape:connector-curvature="0"
       style="fill:#006df0" />
    <path
       d="M 262.835,84.869 C 281.674,84.869 297,69.542 297,50.703 297,31.864 281.674,16.537 262.835,16.537 c -18.839,0 -34.166,15.327 -34.166,34.166 0,18.839 15.327,34.166 34.166,34.166 z"
       id="path4206"
       inkscape:connector-curvature="0"
       style="fill:#006df0" />
    <path
       d="m 232.036,133.777 0,52.367 -29.994,0 c -13.757,0 -24.909,11.152 -24.909,24.908 l 0,75.595 c 0,3.992 3.236,7.229 7.229,7.229 l 34.077,0 c 3.992,0 7.229,-3.236 7.229,-7.229 l 0,-52.407 38.457,0 c 16.297,0 29.508,-13.211 29.508,-29.508 l 0,-70.955 c 0,-17.009 -13.789,-30.798 -30.798,-30.798 -17.01,-0.001 -30.799,13.788 -30.799,30.798 z"
       id="path4208"
       inkscape:connector-curvature="0"
       style="fill:#006df0" />
    <path
       d="m 199.616,151.813 c 4.848,0 8.777,-3.93 8.777,-8.777 0,-4.848 -3.93,-8.777 -8.777,-8.777 l -102.232,0 c -4.848,0 -8.777,3.93 -8.777,8.777 0,4.848 3.93,8.777 8.777,8.777 l 42.338,0 0,136.395 c 0,4.848 3.93,8.777 8.777,8.777 4.847,0 8.777,-3.93 8.777,-8.777 l 0,-136.395 42.34,0 z"
       id="path4210"
       inkscape:connector-curvature="0"
       style="fill:#006df0" />
  </g>
  <text
     xml:space="preserve"
     style="font-style:normal;font-weight:normal;font-size:23.203125px;line-height:125%;font-family:sans-serif;letter-spacing:0px;word-spacing:0px;fill:#000000;fill-opacity:1;stroke:none;stroke-width:1px;stroke-linecap:butt;stroke-linejoin:miter;stroke-opacity:1"
     x="314.41974"
     y="186.99728"
     id="text4758"
     sodipodi:linespacing="125%"><tspan
       sodipodi:role="line"
       id="tspan4760"
       x="319.03656"
       y="186.99728"
       style="font-size:29.00390625px;text-align:center;text-anchor:middle">Ache um </tspan><tspan
       sodipodi:role="line"
       x="314.41974"
       y="223.25217"
       id="tspan4762"
       style="font-size:29.00390625px;text-align:center;text-anchor:middle">profissional</tspan></text>
</svg>
